<?xml version="1.0" standalone="no"?>
<svg xmlns="http://www.w3.org/2000/svg" xmlns:xlink="http://www.w3.org/1999/xlink" height="200px" width="200px">
  <defs>
    <pattern id="doodad" width="164" height="164" viewBox="0 0 40 40" patternUnits="userSpaceOnUse" patternTransform="">
      <rect width="100%" height="100%" fill="rgba(255, 255, 255,1)"/>
      <path d="M0 0L20 0L20 20L0 20L0 0zM0.6 0.6L6 14L15.8 15.8L14 6zM20 20L40 20L40 40L20 40L20 20zM24.2 24.2L26 34L39.4 39.4L34 26z" fill="rgba(34, 34, 34,1)"/>
      <path d="M26 6L39.4 0.6L34 14L20 20zM6 26L20 20L14 34L0.6 39.4z" fill="rgba(132, 220, 198,1)" filter="url(#filter-doodad-2)"/>
    </pattern>
    <filter id="filter-doodad-2">
      <feGaussianBlur in="SourceGraphic" stdDeviation="0.2"/>
    </filter>
  </defs>
  <rect fill="url(#doodad)" height="200%" width="200%"/>
</svg>
